<svg xmlns="http://www.w3.org/2000/svg"  viewBox="0 0 64 64" width="500px" height="500px"><path d="M17.105,48.603c0-0.674,0.207-1.27,0.7-1.97l10.421-14.672V31.78L18.09,17.652c-0.57-0.752-0.752-1.348-0.752-2.048	c0-1.555,1.296-2.722,2.981-2.722c1.115,0,1.789,0.441,2.618,1.659l9.15,13.22h0.207l9.358-13.376	c0.752-1.089,1.322-1.503,2.411-1.503c1.555,0,2.851,1.115,2.851,2.489c0,0.674-0.207,1.27-0.7,1.97L35.509,31.987v0.156	l10.369,14.361c0.467,0.622,0.7,1.27,0.7,1.97c0,1.503-1.27,2.644-2.877,2.644c-1.089,0-1.763-0.415-2.514-1.478l-9.332-13.194	h-0.181l-9.332,13.168c-0.804,1.141-1.374,1.503-2.463,1.503C18.323,51.117,17.105,50.003,17.105,48.603z"/></svg>