<svg xmlns="http://www.w3.org/2000/svg"  viewBox="0 0 512000 512000" width="1083px" height="1083px" clip-rule="evenodd" image-rendering="optimizeQuality" shape-rendering="geometricPrecision" text-rendering="geometricPrecision"><path fill="#1bab1f" d="M71457 99007 L440543 99007 C450292 99007 458267 106985 458267 116731 L458267 394887 L53733 394887 L53733 116731 C53733 106982 61708 99007 71457 99007 z M5393 406973 L199674 406973 L199674 418218 C199674 420929 201896 423154 204610 423154 L307391 423154 C310105 423154 312326 420932 312326 418218 L312326 406973 L506607 406973 L506607 435270 C506607 445008 498623 452994 488883 452994 L23116 452994 C13377 452994 5392 445019 5392 435270 L5392 406973 z M77411 370248 L434592 370248 C435479 370248 436203 369524 436203 368637 L436203 125258 C436203 124371 435475 123647 434592 123647 L77411 123647 C76526 123647 75800 124375 75800 125258 L75800 368637 C75800 369520 76524 370248 77411 370248 z"/><path fill="#1bab1f" d="M245500 151000 C263500 151000 279850 153250 294550 157750 C309250 162250 321850 168900 332350 177700 C342850 186500 351000 197450 356800 210550 C362600 223650 365500 238800 365500 256000 C365500 273200 362600 288350 356800 301450 C351000 314550 342850 325500 332350 334300 C321850 343100 309250 349750 294550 354250 C279850 358750 263500 361000 245500 361000 L146500 361000 L146500 150999 L245500 150999 z M190000 173500 L190000 338501 L245500 338501 C255700 338501 265250 336951 274150 333851 C283050 330751 290800 325851 297400 319151 C304000 312451 309250 303901 313150 293501 C317050 283101 319000 270601 319000 256001 C319000 241401 317050 228901 313150 218501 C309250 208101 304000 199551 297400 192851 C290800 186151 283050 181251 274150 178151 C265250 175051 255700 173501 245500 173501 L190000 173501 z"/></svg>